<svg xmlns="http://www.w3.org/2000/svg">

<!-- Envelope -->
<symbol id="envelope-icon" viewport="0 0 16 12">
<g>
<path d="M14.5 0H1.50001C0.672854 0 0 0.628107 0 1.40026V9.80173C0 10.5739 0.672854 11.202 1.50001 11.202H14.5C15.3271 11.202 16 10.5739 16 9.80173V1.40026C16 0.628107 15.3271 0 14.5 0ZM14.5 0.933493C14.5679 0.933493 14.6325 0.94665 14.6916 0.969628L8 6.38361L1.30833 0.969628C1.36742 0.946681 1.43204 0.933493 1.49998 0.933493H14.5ZM14.5 10.2685H1.50001C1.22414 10.2685 0.999996 10.0593 0.999996 9.80169V1.95587L7.67236 7.35402C7.76661 7.43013 7.8833 7.46798 8 7.46798C8.1167 7.46798 8.23339 7.43016 8.32764 7.35402L15 1.95587V9.80173C15 10.0593 14.7759 10.2685 14.5 10.2685Z"/>
</g>
</symbol>

<symbol id="phone-icon" viewport="0 0 10 15">
<g>
<path d="M8.5 3.05176e-05H1.5C0.672848 3.05176e-05 0 0.628133 0 1.40028V13.5358C0 14.3079 0.672848 14.936 1.5 14.936H8.5C9.32715 14.936 10 14.3079 10 13.5358V1.40028C10 0.628133 9.32715 3.05176e-05 8.5 3.05176e-05ZM1.5 0.933529H8.5C8.77588 0.933529 9 1.14275 9 1.40028V11.202H1V1.40028C1 1.14275 1.22412 0.933529 1.5 0.933529ZM8.5 14.0025H1.5C1.22412 14.0025 1 13.7933 1 13.5358V12.1355H9V13.5358C9 13.7933 8.77588 14.0025 8.5 14.0025Z"/>
<path d="M2.35355 12.739C2.54882 12.9214 2.54882 13.217 2.35355 13.3993C2.15828 13.5817 1.84172 13.5817 1.64645 13.3993C1.45118 13.217 1.45118 12.9214 1.64645 12.739C1.84172 12.5567 2.15828 12.5567 2.35355 12.739Z"/>
</g>
</symbol>


<!-- instagram -->
<symbol id="insta-icon">
<g>
<path d="M31.9804 17.8801C31.9336 16.8174 31.7617 16.0868 31.5156 15.4537C31.2616 14.7818 30.8709 14.1801 30.359 13.68C29.8589 13.1721 29.2533 12.7774 28.5891 12.5274C27.9524 12.2813 27.2256 12.1094 26.163 12.0626C25.0924 12.0118 24.7525 12 22.0371 12C19.3217 12 18.9818 12.0118 17.9152 12.0586C16.8525 12.1055 16.1219 12.2775 15.489 12.5235C14.8169 12.7774 14.2153 13.1681 13.7152 13.68C13.2073 14.1801 12.8127 14.7857 12.5626 15.4499C12.3164 16.0868 12.1446 16.8134 12.0977 17.8761C12.0469 18.9467 12.0352 19.2866 12.0352 22.002C12.0352 24.7173 12.0469 25.0572 12.0938 26.1239C12.1406 27.1865 12.3126 27.9171 12.5588 28.5502C12.8127 29.2221 13.2073 29.8238 13.7152 30.3239C14.2153 30.8318 14.8209 31.2265 15.4851 31.4765C16.1219 31.7226 16.8486 31.8945 17.9114 31.9413C18.9779 31.9883 19.3179 31.9999 22.0333 31.9999C24.7487 31.9999 25.0885 31.9883 26.1552 31.9413C27.2179 31.8945 27.9484 31.7226 28.5813 31.4765C29.9254 30.9568 30.9881 29.8941 31.5078 28.5502C31.7538 27.9133 31.9258 27.1865 31.9727 26.1239C32.0195 25.0572 32.0313 24.7173 32.0313 22.002C32.0313 19.2866 32.0273 18.9467 31.9804 17.8801ZM30.1794 26.0457C30.1364 27.0225 29.9723 27.5499 29.8356 27.9015C29.4995 28.7728 28.808 29.4643 27.9367 29.8004C27.5851 29.9372 27.0538 30.1012 26.0809 30.1441C25.026 30.1911 24.7096 30.2027 22.0411 30.2027C19.3726 30.2027 19.0522 30.1911 18.0011 30.1441C17.0244 30.1012 16.4969 29.9372 16.1453 29.8004C15.7117 29.6402 15.317 29.3862 14.9967 29.0541C14.6646 28.7298 14.4106 28.3391 14.2504 27.9055C14.1137 27.5539 13.9496 27.0225 13.9067 26.0497C13.8597 24.9948 13.8481 24.6783 13.8481 22.0097C13.8481 19.3412 13.8597 19.0209 13.9067 17.9699C13.9496 16.9932 14.1137 16.4657 14.2504 16.1141C14.4106 15.6804 14.6646 15.2859 15.0007 14.9654C15.3248 14.6333 15.7155 14.3793 16.1493 14.2192C16.5009 14.0825 17.0323 13.9184 18.0051 13.8754C19.06 13.8285 19.3765 13.8168 22.0449 13.8168C24.7174 13.8168 25.0337 13.8285 26.0848 13.8754C27.0616 13.9184 27.589 14.0825 27.9407 14.2192C28.3742 14.3793 28.7689 14.6333 29.0893 14.9654C29.4213 15.2897 29.6753 15.6804 29.8356 16.1141C29.9723 16.4657 30.1364 16.997 30.1794 17.9699C30.2263 19.0248 30.238 19.3412 30.238 22.0097C30.238 24.6783 30.2263 24.9908 30.1794 26.0457Z"/>
<path d="M22.0371 16.8641C19.2007 16.8641 16.8994 19.1653 16.8994 22.0019C16.8994 24.8384 19.2007 27.1396 22.0371 27.1396C24.8737 27.1396 27.1749 24.8384 27.1749 22.0019C27.1749 19.1653 24.8737 16.8641 22.0371 16.8641ZM22.0371 25.3346C20.197 25.3346 18.7044 23.8421 18.7044 22.0019C18.7044 20.1616 20.197 18.6691 22.0371 18.6691C23.8774 18.6691 25.3698 20.1616 25.3698 22.0019C25.3698 23.8421 23.8774 25.3346 22.0371 25.3346Z" />
<path d="M28.5775 16.6611C28.5775 17.3235 28.0404 17.8605 27.3779 17.8605C26.7155 17.8605 26.1785 17.3235 26.1785 16.6611C26.1785 15.9986 26.7155 15.4617 27.3779 15.4617C28.0404 15.4617 28.5775 15.9986 28.5775 16.6611Z" />
</g>
</symbol>

<!-- twitter -->
<symbol id="twitter-icon">
<g>
<path d="M32 15.7988C31.2563 16.125 30.4637 16.3412 29.6375 16.4462C30.4875 15.9388 31.1363 15.1412 31.4412 14.18C30.6488 14.6525 29.7738 14.9863 28.8412 15.1725C28.0887 14.3713 27.0162 13.875 25.8462 13.875C23.5763 13.875 21.7487 15.7175 21.7487 17.9763C21.7487 18.3012 21.7762 18.6137 21.8438 18.9112C18.435 18.745 15.4188 17.1113 13.3925 14.6225C13.0387 15.2363 12.8313 15.9388 12.8313 16.695C12.8313 18.115 13.5625 19.3737 14.6525 20.1025C13.9937 20.09 13.3475 19.8988 12.8 19.5975C12.8 19.61 12.8 19.6262 12.8 19.6425C12.8 21.635 14.2212 23.29 16.085 23.6712C15.7512 23.7625 15.3875 23.8062 15.01 23.8062C14.7475 23.8062 14.4825 23.7913 14.2337 23.7362C14.765 25.36 16.2725 26.5538 18.065 26.5925C16.67 27.6838 14.8988 28.3412 12.9813 28.3412C12.645 28.3412 12.3225 28.3263 12 28.285C13.8162 29.4563 15.9688 30.125 18.29 30.125C25.835 30.125 29.96 23.875 29.96 18.4575C29.96 18.2762 29.9538 18.1013 29.945 17.9275C30.7588 17.35 31.4425 16.6288 32 15.7988Z" />
</g>
</symbol>

<!-- facebook -->
<symbol id="facebook-icon">
<g>
<path d="M25.3308 15.3208H27.1566V12.1408C26.8416 12.0975 25.7583 12 24.4966 12C21.8641 12 20.0608 13.6558 20.0608 16.6992V19.5H17.1558V23.055H20.0608V32H23.6224V23.0558H26.4099L26.8524 19.5008H23.6216V17.0517C23.6224 16.0242 23.8991 15.3208 25.3308 15.3208Z" />
</g>
</symbol>

<!-- linkedin -->
<symbol id="linkedin-icon">
<g>
<path d="M31.9951 32.0001V31.9993H32.0001V24.6643C32.0001 21.0759 31.2276 18.3118 27.0326 18.3118C25.0159 18.3118 23.6626 19.4184 23.1101 20.4676H23.0517V18.6468H19.0742V31.9993H23.2159V25.3876C23.2159 23.6468 23.5459 21.9634 25.7017 21.9634C27.8259 21.9634 27.8576 23.9501 27.8576 25.4993V32.0001H31.9951Z" />
<path d="M12.3301 18.6475H16.4767V32H12.3301V18.6475Z" />
<path d="M14.4017 12C13.0758 12 12 13.0758 12 14.4017C12 15.7275 13.0758 16.8258 14.4017 16.8258C15.7275 16.8258 16.8033 15.7275 16.8033 14.4017C16.8025 13.0758 15.7267 12 14.4017 12V12Z"/>
</g>
</symbol>


<!-- Clients logo -->
<symbol id="client1">
<g>
 <rect x="0.5" y="0.5" width="169" height="89" rx="3.5" fill-opacity="0"/>
<path d="M69 20L76.3076 26.918H96.6924V46.2158L104 53.1338V20H69Z" />
<path d="M63 26.6265V58.8137H97V46.0195L76.5231 26.6344L63 26.6265ZM90.5231 54.1055H68.3801V32.4579H69.9453V52.6397H90.5231V54.1055Z" />
<path d="M72.791 64.7837L73.6089 63.0991H74.2925L73.1011 65.3452V66.6538H72.481V65.3452L71.2871 63.0991H71.9731L72.791 64.7837ZM76.3018 65.8262H74.9248L74.6367 66.6538H73.9946L75.3374 63.0991H75.8916L77.2368 66.6538H76.5923L76.3018 65.8262ZM75.0981 65.3281H76.1284L75.6133 63.8535L75.0981 65.3281ZM78.7358 65.6943C78.7358 65.5299 78.7806 65.3794 78.8701 65.2427C78.9596 65.1043 79.1362 64.9408 79.3999 64.752C79.2616 64.5778 79.1647 64.4297 79.1094 64.3076C79.0557 64.1855 79.0288 64.0675 79.0288 63.9536C79.0288 63.6753 79.1134 63.4556 79.2827 63.2944C79.452 63.1317 79.6799 63.0503 79.9663 63.0503C80.2251 63.0503 80.4367 63.1268 80.6011 63.2798C80.7671 63.4312 80.8501 63.6191 80.8501 63.8438C80.8501 63.9919 80.8127 64.1286 80.7378 64.2539C80.6629 64.3776 80.54 64.5013 80.3691 64.625L80.1274 64.8008L80.8135 65.6113C80.9128 65.416 80.9624 65.1987 80.9624 64.9595H81.4775C81.4775 65.3973 81.375 65.7562 81.1699 66.0361L81.6924 66.6538H81.0039L80.8037 66.417C80.5498 66.6074 80.2471 66.7026 79.8955 66.7026C79.5439 66.7026 79.2624 66.6099 79.0508 66.4243C78.8408 66.2371 78.7358 65.9938 78.7358 65.6943ZM79.9126 66.229C80.1128 66.229 80.3 66.1623 80.4741 66.0288L79.6978 65.1133L79.6221 65.167C79.4268 65.3151 79.3291 65.4844 79.3291 65.6748C79.3291 65.8392 79.382 65.9727 79.4878 66.0752C79.5936 66.1777 79.7352 66.229 79.9126 66.229ZM79.5854 63.939C79.5854 64.0757 79.6693 64.2474 79.8369 64.4541L80.1079 64.2686L80.1836 64.2075C80.2845 64.118 80.335 64.0033 80.335 63.8633C80.335 63.7705 80.3 63.6916 80.23 63.6265C80.16 63.5597 80.0713 63.5264 79.9639 63.5264C79.8483 63.5264 79.7563 63.5654 79.688 63.6436C79.6196 63.7217 79.5854 63.8201 79.5854 63.939ZM86.043 65.4966C86.0072 65.8758 85.8672 66.172 85.623 66.3853C85.3789 66.5968 85.0542 66.7026 84.6489 66.7026C84.3657 66.7026 84.1159 66.6359 83.8994 66.5024C83.6846 66.3674 83.5186 66.1761 83.4014 65.9287C83.2842 65.6813 83.2231 65.394 83.2183 65.0669V64.7349C83.2183 64.3996 83.2777 64.1042 83.3965 63.8486C83.5153 63.5931 83.6854 63.3962 83.9067 63.2578C84.1297 63.1195 84.3869 63.0503 84.6782 63.0503C85.0705 63.0503 85.3862 63.1569 85.6255 63.3701C85.8647 63.5833 86.0039 63.8844 86.043 64.2734H85.4277C85.3984 64.0179 85.3236 63.834 85.2031 63.7217C85.0843 63.6077 84.9093 63.5508 84.6782 63.5508C84.4097 63.5508 84.203 63.6493 84.0581 63.8462C83.9149 64.0415 83.8416 64.3288 83.8384 64.708V65.0229C83.8384 65.4071 83.9067 65.7 84.0435 65.9019C84.1818 66.1037 84.3836 66.2046 84.6489 66.2046C84.8914 66.2046 85.0737 66.1501 85.1958 66.041C85.3179 65.932 85.3952 65.7505 85.4277 65.4966H86.043ZM89.4341 64.9692C89.4341 65.3175 89.3739 65.6235 89.2534 65.8872C89.133 66.1493 88.9604 66.3511 88.7358 66.4927C88.5129 66.6326 88.2557 66.7026 87.9644 66.7026C87.6763 66.7026 87.4191 66.6326 87.1929 66.4927C86.9683 66.3511 86.7941 66.1501 86.6704 65.8896C86.5483 65.6292 86.4865 65.3289 86.4849 64.9888V64.7886C86.4849 64.4419 86.5459 64.1359 86.668 63.8706C86.7917 63.6053 86.965 63.4027 87.188 63.2627C87.4126 63.1211 87.6698 63.0503 87.9595 63.0503C88.2492 63.0503 88.5055 63.1203 88.7285 63.2603C88.9531 63.3986 89.1265 63.5988 89.2485 63.8608C89.3706 64.1213 89.4325 64.4248 89.4341 64.7715V64.9692ZM88.8164 64.7837C88.8164 64.3898 88.7415 64.0879 88.5918 63.8779C88.4437 63.668 88.2329 63.563 87.9595 63.563C87.6925 63.563 87.4834 63.668 87.332 63.8779C87.1823 64.0863 87.1058 64.3817 87.1025 64.7642V64.9692C87.1025 65.3599 87.1782 65.6618 87.3296 65.875C87.4826 66.0882 87.6942 66.1948 87.9644 66.1948C88.2378 66.1948 88.4478 66.0907 88.5942 65.8823C88.7424 65.674 88.8164 65.3696 88.8164 64.9692V64.7837Z"/>
</g>
</symbol>


<symbol id="client2">
<g>
<rect x="0.5" y="0.5" width="169" height="89" rx="3.5" fill-opacity="0"/>
<path d="M81.9769 21.9345H82.1135C82.3665 21.9345 82.6397 21.9599 82.9104 21.9828C84.103 22.067 85.2873 22.2455 86.452 22.5168V19.6535C85.2527 19.3526 84.0296 19.1578 82.7965 19.0712C82.3285 19.0356 81.8302 19.0127 81.3192 19H80.8916C78.4168 19.0093 75.9526 19.3271 73.5554 19.946C70.8252 20.6269 68.2046 21.6928 65.7715 23.1119V51.5086C68.1142 50.2357 70.607 49.2643 73.1912 48.6173C75.2315 48.0967 77.3174 47.7765 79.4194 47.6612H79.5028C79.8545 47.6434 80.2061 47.6332 80.5678 47.6306V44.7216C77.8366 44.7567 75.1192 45.1178 72.4727 45.7972C71.4937 46.0515 70.5476 46.3261 69.6597 46.6313L68.6478 46.9746V24.8334L69.0804 24.6249C72.3816 23.0595 75.9521 22.1486 79.5964 21.9421C79.6267 21.9399 79.6572 21.9399 79.6875 21.9421C80.0897 21.9218 80.4945 21.9116 80.8916 21.9116H81.3268H81.347C81.557 21.9167 81.7669 21.9218 81.9769 21.9345Z" />
<path d="M89.1108 24.9326C88.4455 24.9326 87.7877 24.9097 87.1528 24.8614C86.3939 24.8054 85.6147 24.7139 84.876 24.5893C84.4257 24.513 83.983 24.4215 83.553 24.3223V52.3935C85.3737 52.8443 87.2433 53.0647 89.1184 53.0496C91.5931 53.0395 94.0571 52.7227 96.4546 52.1061C99.1853 51.4243 101.807 50.3585 104.241 48.9402V21.0496C101.899 22.3218 99.4068 23.294 96.8239 23.9434C94.3031 24.5908 91.7125 24.9231 89.1108 24.9326V24.9326ZM100.335 25.4183L101.347 25.0775V47.2263L100.914 47.4348C99.2552 48.2243 97.5223 48.8469 95.7412 49.2937C93.5781 49.8533 91.3544 50.1412 89.1209 50.1506C88.4531 50.1506 87.7903 50.1227 87.1477 50.0667L86.4546 50.0057V47.3178V27.2288L87.2616 27.2822C87.8485 27.3204 88.4556 27.3382 89.1158 27.3382C91.9514 27.3281 94.7749 26.966 97.5221 26.26C98.4657 26.0108 99.4042 25.7311 100.335 25.4183Z" />
<path d="M67.7373 61.2123C67.5918 61.0614 67.4164 60.9429 67.2225 60.8645C67.0286 60.7861 66.8204 60.7495 66.6115 60.7571C66.3889 60.7541 66.1679 60.7956 65.9614 60.8791C65.772 60.9546 65.5999 61.0679 65.4554 61.2123C65.3126 61.3571 65.2014 61.5303 65.1291 61.7208C65.0498 61.9205 65.0103 62.1339 65.0127 62.3489V66.143C65.0037 66.4103 65.0547 66.6763 65.162 66.9211C65.2516 67.1155 65.3808 67.2888 65.5415 67.4297C65.6931 67.5573 65.8711 67.6494 66.0626 67.6992C66.2471 67.7511 66.4377 67.7776 66.6292 67.7781C66.8405 67.7802 67.0497 67.735 67.2414 67.6458C67.4311 67.5629 67.6029 67.4437 67.7474 67.2949C67.8883 67.1475 68.0006 66.975 68.0788 66.7863C68.1599 66.595 68.2012 66.3891 68.2002 66.1811V65.7564H67.2085V66.0947C67.2115 66.2101 67.1917 66.3251 67.1504 66.4329C67.1181 66.5136 67.0689 66.5865 67.0062 66.6465C66.9447 66.6961 66.8743 66.7332 66.7987 66.7558C66.7318 66.7781 66.6618 66.7901 66.5913 66.7914C66.5028 66.8017 66.4131 66.7883 66.3313 66.7526C66.2496 66.7169 66.1787 66.6601 66.1258 66.588C66.0323 66.4355 65.9865 66.2583 65.9943 66.0794V62.5422C65.9881 62.3461 66.0298 62.1514 66.1157 61.9751C66.1672 61.8951 66.24 61.8311 66.3259 61.7907C66.4118 61.7502 66.5072 61.7348 66.6014 61.7463C66.6869 61.7432 66.7718 61.7611 66.8489 61.7983C66.926 61.8355 66.993 61.8909 67.0441 61.9599C67.1551 62.1056 67.2131 62.285 67.2085 62.4685V62.7965H68.1901V62.41C68.1921 62.183 68.1509 61.9577 68.0686 61.7463C67.9954 61.5475 67.8826 61.3658 67.7373 61.2123V61.2123Z" />
<path d="M73.6289 61.1692C73.3127 60.9022 72.9136 60.7547 72.5007 60.7522C72.2987 60.7531 72.0984 60.7892 71.9087 60.859C71.7161 60.928 71.5384 61.0333 71.3851 61.1692C71.2208 61.3169 71.0897 61.4981 71.0005 61.7007C70.9006 61.9325 70.8515 62.1831 70.8563 62.4356V66.0745C70.8495 66.3305 70.8987 66.5849 71.0005 66.8196C71.0903 67.0153 71.2215 67.1889 71.3851 67.3282C71.5367 67.4689 71.7147 67.5779 71.9087 67.6486C72.0984 67.7184 72.2987 67.7545 72.5007 67.7554C72.7027 67.755 72.9031 67.7188 73.0926 67.6486C73.29 67.5769 73.4719 67.4681 73.6289 67.3282C73.7871 67.1862 73.9145 67.0131 74.0033 66.8196C74.1051 66.5849 74.1544 66.3305 74.1475 66.0745V62.4356C74.1524 62.1831 74.1032 61.9325 74.0033 61.7007C73.9151 61.5002 73.7878 61.3195 73.6289 61.1692V61.1692ZM73.166 66.0745C73.1743 66.1715 73.1609 66.2691 73.1268 66.3602C73.0926 66.4513 73.0386 66.5336 72.9687 66.6009C72.8377 66.7107 72.6725 66.7709 72.5019 66.7709C72.3313 66.7709 72.1662 66.7107 72.0352 66.6009C71.9652 66.5336 71.9112 66.4513 71.8771 66.3602C71.8429 66.2691 71.8295 66.1715 71.8379 66.0745V62.4356C71.8295 62.3386 71.8429 62.241 71.8771 62.1499C71.9112 62.0588 71.9652 61.9765 72.0352 61.9092C72.1662 61.7994 72.3313 61.7392 72.5019 61.7392C72.6725 61.7392 72.8377 61.7994 72.9687 61.9092C73.0386 61.9765 73.0926 62.0588 73.1268 62.1499C73.1609 62.241 73.1743 62.3386 73.166 62.4356V66.0745Z" />
<path d="M81.3673 67.6993V60.8105H80.4136L79.1614 64.4571H79.1437L77.8813 60.8105H76.9377V67.6993H77.9218V63.5086H77.9395L78.9033 66.4711H79.3941L80.3655 63.5086H80.3832V67.6993H81.3673Z" />
<path d="M86.9579 61.2938C86.8064 61.1238 86.6151 60.9944 86.4014 60.9174C86.1711 60.8425 85.93 60.8064 85.688 60.8106H84.2258V67.6994H85.2074V65.009H85.7133C86.0196 65.0229 86.3243 64.9582 86.5987 64.8208C86.8219 64.6969 87.0079 64.5151 87.1375 64.2944C87.2511 64.1112 87.3276 63.9073 87.3627 63.6943C87.4013 63.4351 87.4191 63.1732 87.4158 62.9111C87.4253 62.5803 87.393 62.2496 87.3197 61.927C87.2542 61.6886 87.1298 61.4708 86.9579 61.2938V61.2938ZM86.452 63.3942C86.4477 63.519 86.4167 63.6413 86.3609 63.7528C86.3048 63.8587 86.2161 63.9435 86.1079 63.9944C85.9625 64.0594 85.8039 64.089 85.645 64.0808H85.1972V61.7388H85.7032C85.8555 61.7313 86.0074 61.761 86.1459 61.8253C86.2474 61.8835 86.328 61.9725 86.3761 62.0795C86.4297 62.2006 86.459 62.3311 86.4621 62.4635C86.4621 62.6085 86.4621 62.7611 86.4621 62.9213C86.4621 63.0815 86.4722 63.2467 86.4621 63.3942H86.452Z" />
<path d="M91.6077 60.8105H90.8032L89.2854 67.6993H90.2669L90.5553 66.2193H91.8935L92.1819 67.6993H93.1635L91.6077 60.8105ZM90.702 65.281L91.1852 62.7838H91.2029L91.6836 65.281H90.702Z" />
<path d="M97.9496 64.9606H97.9319L96.4494 60.8105H95.5059V67.6993H96.4874V63.5569H96.5076L98.0078 67.6993H98.9311V60.8105H97.9496V64.9606Z" />
<path d="M103.948 60.8105L103.158 63.5493H103.138L102.349 60.8105H101.309L102.657 64.7877V67.6993H103.639V64.7877L104.987 60.8105H103.948Z" />
<path d="M65 69.6447H65.4731V70.972H65.7943V69.6447H66.2649V69.3726H65V69.6447Z" />
<path d="M68.9767 69.3726L68.3569 70.972H68.6984L68.83 70.6084H69.4675L69.6041 70.972H69.9532L69.3182 69.3726H68.9767ZM68.9261 70.3389L69.1437 69.7464L69.3612 70.3389H68.9261Z" />
<path d="M72.9079 70.3821H73.2773V70.5881C73.1694 70.6746 73.0358 70.722 72.8978 70.7229C72.8333 70.7265 72.7689 70.7145 72.7099 70.688C72.6509 70.6614 72.5991 70.6211 72.5588 70.5703C72.474 70.4485 72.4322 70.3017 72.4399 70.1533C72.4399 69.7973 72.5942 69.6193 72.9003 69.6193C72.9809 69.6112 73.0617 69.6325 73.128 69.6791C73.1944 69.7257 73.2419 69.7947 73.2621 69.8735L73.5783 69.8125C73.51 69.4997 73.2849 69.3421 72.9003 69.3421C72.6947 69.3366 72.4947 69.4103 72.3413 69.5481C72.2607 69.6276 72.1983 69.7239 72.1586 69.8302C72.1188 69.9365 72.1026 70.0502 72.1111 70.1634C72.1017 70.3823 72.1749 70.5966 72.316 70.7636C72.3943 70.8444 72.4892 70.9071 72.594 70.9475C72.6988 70.9879 72.8111 71.0049 72.9231 70.9975C73.1734 71.0045 73.4165 70.9133 73.6011 70.7432V70.1126H72.9079V70.3821Z" />
<path d="M76.9227 69.3726H76.5989V70.972H77.7195V70.7H76.9227V69.3726Z" />
<path d="M80.3175 69.3726H79.9937V70.972H80.3175V69.3726Z" />
<path d="M83.6364 70.4406L82.9812 69.3726H82.6675V70.972H82.9685V69.9269L83.6111 70.972H83.9323V69.3726H83.6364V70.4406Z" />
<path d="M86.6368 70.2677H87.4337V69.9956H86.6368V69.6447H87.4944V69.3726H86.313V70.972H87.5273V70.7H86.6368V70.2677Z" />
<path d="M93.9121 70.0032H93.2822V69.3726H92.9609V70.972H93.2822V70.2728H93.9121V70.972H94.2334V69.3726H93.9121V70.0032Z" />
<path d="M96.9302 70.2677H97.7296V69.9956H96.9302V69.6447H97.7903V69.3726H96.6089V70.972H97.8206V70.7H96.9302V70.2677Z" />
<path d="M101.023 70.2676C101.302 70.2244 101.443 70.0769 101.443 69.8226C101.451 69.7546 101.441 69.6856 101.413 69.623C101.386 69.5603 101.342 69.5063 101.286 69.4666C101.141 69.3938 100.98 69.3614 100.818 69.3725H100.14V70.972H100.462V70.3032H100.525C100.593 70.299 100.662 70.3112 100.725 70.3388C100.772 70.3678 100.811 70.4079 100.839 70.4558L101.188 70.9644H101.572L101.377 70.6516C101.291 70.4972 101.17 70.3656 101.023 70.2676V70.2676ZM100.699 70.0464H100.462V69.6446H100.715C100.825 69.6357 100.936 69.6486 101.041 69.6827C101.064 69.7034 101.083 69.7291 101.095 69.7579C101.107 69.7867 101.113 69.8179 101.111 69.8492C101.11 69.8804 101.101 69.911 101.087 69.9385C101.072 69.966 101.051 69.9899 101.026 70.0082C100.92 70.0406 100.81 70.0535 100.699 70.0464V70.0464Z" />
<path d="M104.109 70.2677H104.906V69.9956H104.109V69.6447H104.97V69.3726H103.786V70.972H105V70.7H104.109V70.2677Z" />
</g>
</symbol>


<symbol id="client3">
<g>
<rect x="0.5" y="0.5" width="169" height="89" rx="3.5" fill-opacity="0" />
<path d="M71.3454 65.7946C71.3604 65.795 71.3752 65.7982 71.3889 65.8041C71.4026 65.81 71.4149 65.8184 71.4251 65.8289L71.6309 66.0446C71.4712 66.2191 71.2738 66.3588 71.0522 66.4539C70.7927 66.5577 70.513 66.6078 70.2317 66.6009C69.9673 66.6061 69.7046 66.5594 69.46 66.4637C69.2394 66.3758 69.0412 66.2437 68.8787 66.0764C68.713 65.9029 68.5853 65.6996 68.5032 65.4784C68.4133 65.2318 68.3689 64.9723 68.372 64.7113C68.3684 64.4486 68.4164 64.1875 68.5135 63.9417C68.6033 63.7191 68.7389 63.5158 68.9122 63.3436C69.0878 63.1749 69.2979 63.0423 69.5295 62.9539C69.7828 62.8604 70.0526 62.8138 70.3243 62.8167C70.5766 62.8108 70.8277 62.8534 71.0625 62.9417C71.2662 63.0259 71.4532 63.1428 71.6155 63.2873L71.4432 63.5177C71.4312 63.5339 71.4164 63.548 71.3994 63.5593C71.3791 63.5726 71.3545 63.5787 71.33 63.5765C71.3033 63.5747 71.2775 63.5663 71.2554 63.552L71.1628 63.4907L71.0342 63.4123C70.9787 63.3832 70.9211 63.3578 70.8619 63.3363C70.7856 63.3103 70.7073 63.2898 70.6278 63.275C70.5268 63.2573 70.4243 63.2491 70.3217 63.2505C70.1261 63.2482 69.9319 63.2832 69.7507 63.3534C69.5817 63.4185 69.4291 63.5171 69.3031 63.6427C69.1749 63.7762 69.076 63.9329 69.0125 64.1034C68.94 64.2985 68.9043 64.5043 68.907 64.7113C68.9039 64.9214 68.9396 65.1305 69.0125 65.3289C69.0752 65.498 69.1723 65.6537 69.298 65.7872C69.4158 65.9117 69.5618 66.0089 69.725 66.0715C69.8929 66.1379 70.0731 66.1712 70.2548 66.1696C70.3598 66.1711 70.4648 66.1646 70.5686 66.15C70.7382 66.1302 70.9009 66.0741 71.0445 65.9858C71.1165 65.9405 71.1844 65.8897 71.2477 65.8338C71.2741 65.8098 71.3089 65.7958 71.3454 65.7946Z" />
<path d="M77.2871 64.7108C77.2903 64.9709 77.2432 65.2292 77.1482 65.473C77.0644 65.6941 76.9323 65.8958 76.7608 66.0648C76.5892 66.2338 76.382 66.3662 76.1528 66.4533C75.6492 66.6363 75.0925 66.6363 74.589 66.4533C74.3613 66.3648 74.1554 66.2321 73.9845 66.0636C73.8131 65.8916 73.68 65.6882 73.5936 65.4657C73.4083 64.972 73.4083 64.4325 73.5936 63.9388C73.6813 63.7162 73.8141 63.5122 73.9845 63.3384C74.1568 63.1752 74.3626 63.0476 74.589 62.9635C75.0919 62.7772 75.6499 62.7772 76.1528 62.9635C76.3813 63.0519 76.588 63.1846 76.7598 63.3531C76.9292 63.5235 77.0612 63.7243 77.1482 63.9437C77.2435 64.1892 77.2906 64.4492 77.2871 64.7108ZM76.747 64.7108C76.751 64.5028 76.718 64.2956 76.6492 64.0981C76.5916 63.929 76.4979 63.7729 76.374 63.6399C76.2534 63.5139 76.1049 63.4152 75.9393 63.3507C75.5734 63.2167 75.1684 63.2167 74.8024 63.3507C74.6368 63.4152 74.4884 63.5139 74.3678 63.6399C74.2422 63.7722 74.1475 63.9284 74.09 64.0981C73.9591 64.4971 73.9591 64.9246 74.09 65.3235C74.148 65.4931 74.2427 65.6492 74.3678 65.7818C74.4885 65.907 74.637 66.0049 74.8024 66.0685C75.169 66.1991 75.5728 66.1991 75.9393 66.0685C76.1048 66.0049 76.2533 65.907 76.374 65.7818C76.4974 65.6484 76.591 65.4925 76.6492 65.3235C76.7183 65.1261 76.7513 64.9189 76.747 64.7108Z" />
<path d="M81.3408 65.3532L81.3948 65.4904C81.4154 65.4414 81.4334 65.3973 81.4539 65.3532C81.4736 65.3071 81.4959 65.2621 81.5208 65.2184L82.8352 62.942C82.8609 62.9028 82.884 62.8783 82.9098 62.8709C82.9447 62.8608 82.9813 62.8566 83.0178 62.8587H83.4062V66.5613H82.9458V63.8388C82.9458 63.8045 82.9458 63.7653 82.9458 63.7237C82.9433 63.6812 82.9433 63.6387 82.9458 63.5962L81.6237 65.9046C81.6069 65.9391 81.58 65.9684 81.5463 65.9888C81.5125 66.0092 81.4733 66.02 81.4334 66.0197H81.3588C81.3187 66.0203 81.2794 66.0097 81.2456 65.9892C81.2118 65.9687 81.185 65.9393 81.1684 65.9046L79.8078 63.5815C79.8078 63.6256 79.8078 63.6698 79.8078 63.7139C79.8078 63.758 79.8078 63.7972 79.8078 63.8315V66.5539H79.3628V62.8587H79.7512C79.7877 62.8566 79.8243 62.8608 79.8592 62.8709C79.8911 62.886 79.9165 62.9111 79.9312 62.942L81.2739 65.2209C81.3003 65.263 81.3227 65.3073 81.3408 65.3532Z" />
<path d="M86.2871 65.1692V66.5562H85.7727V62.8585H86.9199C87.1364 62.8546 87.3524 62.8818 87.5603 62.9394C87.7268 62.9843 87.8812 63.0629 88.013 63.1697C88.1273 63.2699 88.2154 63.394 88.2703 63.5324C88.331 63.6832 88.3607 63.8438 88.3577 64.0053C88.36 64.1675 88.3276 64.3284 88.2625 64.4782C88.2007 64.6201 88.1057 64.7466 87.9847 64.8482C87.8528 64.9595 87.6976 65.043 87.5295 65.0933C87.3292 65.1542 87.1198 65.1832 86.9096 65.179L86.2871 65.1692ZM86.2871 64.7723H86.9096C87.0448 64.7739 87.1794 64.7549 87.3083 64.7159C87.4146 64.6818 87.5126 64.6277 87.5964 64.5566C87.6736 64.4888 87.7335 64.405 87.7713 64.3116C87.8134 64.2128 87.8344 64.107 87.833 64.0004C87.839 63.8976 87.8214 63.7948 87.7814 63.6992C87.7414 63.6035 87.68 63.5174 87.6015 63.4466C87.405 63.3004 87.1582 63.2296 86.9096 63.2481H86.2871V64.7723Z" />
<path d="M93.201 66.5612H92.7946C92.7538 66.5626 92.7138 66.5505 92.6814 66.5268C92.6522 66.5038 92.6293 66.4744 92.6145 66.4411L92.2647 65.5466H90.508L90.1453 66.4411C90.132 66.4738 90.1098 66.5025 90.081 66.5244C90.0483 66.5495 90.0072 66.5625 89.9652 66.5612H89.5588L91.1021 62.8582H91.6371L93.201 66.5612ZM90.6546 65.1863H92.1053L91.4931 63.6791C91.4463 63.5658 91.4076 63.4495 91.3773 63.3311L91.3182 63.5247C91.3002 63.5836 91.2796 63.6375 91.2616 63.6816L90.6546 65.1863Z" />
<path d="M95.4233 62.8754C95.4541 62.8915 95.4805 62.9141 95.5005 62.9416L97.7511 65.7329C97.7511 65.6887 97.7511 65.6446 97.7511 65.603C97.7511 65.5613 97.7511 65.5197 97.7511 65.4804V62.8582H98.2115V66.5612H97.9543C97.9178 66.5622 97.8816 66.5547 97.8489 66.5391C97.8171 66.5215 97.7892 66.4982 97.7666 66.4705L95.5185 63.6817C95.521 63.7241 95.521 63.7666 95.5185 63.8091C95.5185 63.8508 95.5185 63.8875 95.5185 63.9218V66.5612H95.0581V62.8582H95.3308C95.3626 62.8574 95.3942 62.8632 95.4233 62.8754Z" />
<path d="M102.003 65.0884V66.5588H101.488V65.0884L100.066 62.8584H100.526C100.566 62.8561 100.605 62.8674 100.637 62.8902C100.665 62.914 100.688 62.9422 100.706 62.9735L101.596 64.4121C101.632 64.4733 101.663 64.5297 101.689 64.5836C101.715 64.6375 101.735 64.689 101.753 64.7405L101.82 64.5812C101.845 64.5229 101.874 64.4664 101.908 64.4121L102.785 62.9637C102.803 62.9348 102.826 62.9084 102.852 62.8853C102.882 62.8599 102.922 62.8467 102.962 62.8486H103.428L102.003 65.0884Z" />
<path d="M81.0862 56.6443C81.31 56.6712 81.5363 56.6933 81.7652 56.7129C85.2358 55.2337 88.1718 52.8127 90.2062 49.7526C92.2406 46.6924 93.2832 43.1289 93.2036 39.5073L89.3788 35.8633C90.1565 39.7191 89.7927 43.705 88.3282 47.3751C86.8636 51.0452 84.3561 54.2546 81.0862 56.6443Z" />
<path d="M79.7205 56.4748L79.8233 56.4944C83.3176 54.1132 85.9816 50.788 87.471 46.9488C88.9604 43.1097 89.2065 38.9331 88.1777 34.9592L82.7299 29.769C84.9333 34.0353 85.8203 38.8098 85.2876 43.5374C84.7548 48.265 82.8243 52.7514 79.7205 56.4748Z" />
<path d="M98.1962 43.7861C97.2706 47.7654 95.0228 51.3541 91.7864 54.0196C90.8412 54.8023 89.8217 55.4996 88.741 56.1025C91.3763 55.3646 93.7986 54.0598 95.821 52.289C97.8434 50.5181 99.4119 48.3284 100.406 45.8887L98.1962 43.7861Z" />
<path d="M97.3292 43.2002L94.1835 40.2031C94.1233 43.6201 93.1037 46.9594 91.2306 49.8739C89.3575 52.7885 86.6993 55.1718 83.5322 56.7764H83.5477C84.2534 56.7761 84.9586 56.736 85.6594 56.6563C88.6192 55.5053 91.2339 53.6742 93.2702 51.3262C95.3064 48.9782 96.7009 46.1865 97.3292 43.2002Z" />
<path d="M80.1757 27.5803L76.4229 24C73.0681 25.2351 70.1828 27.4064 68.1446 30.2297C66.1065 33.053 65.0105 36.3968 65 39.8234V39.8234C65.0126 43.6097 66.3502 47.2838 68.8012 50.2643C71.2521 53.2448 74.6764 55.3614 78.5321 56.2791C81.974 52.2838 83.9892 47.347 84.2847 42.186C84.5803 37.025 83.1409 31.9086 80.1757 27.5803Z" />
<path d="M106 42.649C105.986 38.1568 104.107 33.8522 100.773 30.6757C97.4391 27.4992 92.921 25.709 88.2059 25.6961C86.0271 25.6939 83.8668 26.077 81.8347 26.8258L104.812 48.7166C105.598 46.7815 106.001 44.7241 106 42.649Z" />
</g>
</symbol>

<symbol id="client4">
<g>
<rect x="0.5" y="0.5" width="169" height="89" rx="3.5" fill-opacity="0" />
<path d="M57.402 36.8306H57.3992C55.1369 36.8306 53.303 38.6177 53.303 40.8223V40.8249C53.303 43.0295 55.1369 44.8167 57.3992 44.8167H57.402C59.6643 44.8167 61.4982 43.0295 61.4982 40.8249V40.8223C61.4982 38.6177 59.6643 36.8306 57.402 36.8306Z" />
<path d="M87.6368 35.5545C87.6304 32.4924 86.3795 29.5575 84.1579 27.3921C81.9363 25.2266 78.925 24.007 75.7828 24V24C72.6397 24.0056 69.6269 25.2246 67.4041 27.3902C65.1814 29.5558 63.9298 32.4915 63.9233 35.5545V52.4402C63.9233 52.4402 87.6341 49.8667 87.6368 35.5571V35.5545Z" />
<path d="M45 57.9823C45.0057 60.1129 45.8766 62.1547 47.4223 63.6615C48.968 65.1683 51.0629 66.0177 53.2492 66.0239C55.4351 66.0177 57.5296 65.1687 59.0752 63.6625C60.6209 62.1562 61.492 60.1151 61.4985 57.9849V46.2356C61.4985 46.2356 45 48.0276 45 57.9823ZM53.2492 60.0874C52.822 60.0874 52.4043 59.964 52.0491 59.7326C51.6938 59.5013 51.417 59.1726 51.2535 58.7879C51.09 58.4032 51.0472 57.98 51.1305 57.5716C51.2139 57.1632 51.4196 56.7881 51.7217 56.4937C52.0239 56.1993 52.4088 55.9988 52.8278 55.9176C53.2468 55.8364 53.6812 55.8781 54.0759 56.0374C54.4706 56.1967 54.808 56.4665 55.0454 56.8127C55.2827 57.1589 55.4094 57.5659 55.4094 57.9823C55.4105 58.2594 55.3554 58.534 55.2473 58.7903C55.1392 59.0466 54.9803 59.2796 54.7796 59.476C54.5789 59.6723 54.3404 59.828 54.0778 59.9343C53.8152 60.0406 53.5336 60.0953 53.2492 60.0953V60.0874Z"/>
<path d="M70.0891 58.7812H68.4016V60.5244H67.5227V56.2588H70.3V56.9707H68.4016V58.0723H70.0891V58.7812ZM74.3137 58.4883C74.3137 58.9082 74.2395 59.2764 74.0911 59.5928C73.9426 59.9092 73.7297 60.1533 73.4524 60.3252C73.177 60.4971 72.8606 60.583 72.5032 60.583C72.1497 60.583 71.8342 60.498 71.5569 60.3281C71.2795 60.1582 71.0647 59.916 70.9124 59.6016C70.76 59.2852 70.6829 58.9219 70.6809 58.5117V58.3008C70.6809 57.8809 70.7561 57.5117 70.9065 57.1934C71.0588 56.873 71.2727 56.6279 71.5481 56.458C71.8254 56.2861 72.1418 56.2002 72.4973 56.2002C72.8528 56.2002 73.1682 56.2861 73.4436 56.458C73.7209 56.6279 73.9348 56.873 74.0852 57.1934C74.2375 57.5117 74.3137 57.8799 74.3137 58.2979V58.4883ZM73.4231 58.2949C73.4231 57.8477 73.343 57.5078 73.1829 57.2754C73.0227 57.043 72.7942 56.9268 72.4973 56.9268C72.2024 56.9268 71.9749 57.042 71.8147 57.2725C71.6545 57.501 71.5735 57.8369 71.5715 58.2803V58.4883C71.5715 58.9238 71.6516 59.2617 71.8118 59.502C71.9719 59.7422 72.2024 59.8623 72.5032 59.8623C72.7981 59.8623 73.0247 59.7471 73.1829 59.5166C73.3411 59.2842 73.4211 58.9463 73.4231 58.5029V58.2949ZM77.1643 59.4053C77.1643 59.2393 77.1057 59.1123 76.9885 59.0244C76.8713 58.9346 76.6604 58.8408 76.3557 58.7432C76.051 58.6436 75.8098 58.5459 75.6321 58.4502C75.1477 58.1885 74.9055 57.8359 74.9055 57.3926C74.9055 57.1621 74.97 56.957 75.0989 56.7773C75.2297 56.5957 75.4163 56.4541 75.6584 56.3525C75.9026 56.251 76.176 56.2002 76.4788 56.2002C76.7834 56.2002 77.0549 56.2559 77.2932 56.3672C77.5315 56.4766 77.7161 56.6318 77.8469 56.833C77.9797 57.0342 78.0461 57.2627 78.0461 57.5186H77.1672C77.1672 57.3232 77.1057 57.1719 76.9827 57.0645C76.8596 56.9551 76.6868 56.9004 76.4641 56.9004C76.2493 56.9004 76.0823 56.9463 75.9631 57.0381C75.844 57.1279 75.7844 57.2471 75.7844 57.3955C75.7844 57.5342 75.8538 57.6504 75.9924 57.7441C76.1331 57.8379 76.3391 57.9258 76.6106 58.0078C77.1106 58.1582 77.4749 58.3447 77.7034 58.5674C77.9319 58.79 78.0461 59.0674 78.0461 59.3994C78.0461 59.7686 77.9065 60.0586 77.6272 60.2695C77.3479 60.4785 76.9719 60.583 76.4993 60.583C76.1711 60.583 75.8723 60.5234 75.6028 60.4043C75.3333 60.2832 75.1272 60.1182 74.9846 59.9092C74.844 59.7002 74.7737 59.458 74.7737 59.1826H75.6555C75.6555 59.6533 75.9368 59.8887 76.4993 59.8887C76.7083 59.8887 76.8713 59.8467 76.9885 59.7627C77.1057 59.6768 77.1643 59.5576 77.1643 59.4053ZM81.8547 56.9707H80.5481V60.5244H79.6692V56.9707H78.3801V56.2588H81.8547V56.9707ZM84.925 58.6758H83.2375V59.8184H85.218V60.5244H82.3586V56.2588H85.2122V56.9707H83.2375V57.9873H84.925V58.6758ZM87.3127 58.9629H86.6125V60.5244H85.7336V56.2588H87.3186C87.8225 56.2588 88.2112 56.3711 88.4846 56.5957C88.7581 56.8203 88.8948 57.1377 88.8948 57.5479C88.8948 57.8389 88.8313 58.082 88.7043 58.2773C88.5793 58.4707 88.3889 58.625 88.1331 58.7402L89.0559 60.4834V60.5244H88.1125L87.3127 58.9629ZM86.6125 58.251H87.3215C87.5422 58.251 87.7131 58.1953 87.8342 58.084C87.9553 57.9707 88.0159 57.8154 88.0159 57.6182C88.0159 57.417 87.9583 57.2588 87.843 57.1436C87.7297 57.0283 87.5549 56.9707 87.3186 56.9707H86.6125V58.251ZM91.9387 59.0215V60.5244H91.0598V56.2588H92.7239C93.0442 56.2588 93.3254 56.3174 93.5676 56.4346C93.8118 56.5518 93.9993 56.7188 94.1301 56.9355C94.261 57.1504 94.3264 57.3955 94.3264 57.6709C94.3264 58.0889 94.1829 58.4189 93.8958 58.6611C93.6106 58.9014 93.2151 59.0215 92.7092 59.0215H91.9387ZM91.9387 58.3096H92.7239C92.9563 58.3096 93.1331 58.2549 93.2542 58.1455C93.3772 58.0361 93.4387 57.8799 93.4387 57.6768C93.4387 57.4678 93.3772 57.2988 93.2542 57.1699C93.1311 57.041 92.9612 56.9746 92.7444 56.9707H91.9387V58.3096ZM97.4993 58.6758H95.8118V59.8184H97.7922V60.5244H94.9329V56.2588H97.7864V56.9707H95.8118V57.9873H97.4993V58.6758ZM101.577 56.9707H100.271V60.5244H99.3918V56.9707H98.1028V56.2588H101.577V56.9707ZM104.648 58.6758H102.96V59.8184H104.941V60.5244H102.081V56.2588H104.935V56.9707H102.96V57.9873H104.648V58.6758ZM107.035 58.9629H106.335V60.5244H105.456V56.2588H107.041C107.545 56.2588 107.934 56.3711 108.207 56.5957C108.481 56.8203 108.617 57.1377 108.617 57.5479C108.617 57.8389 108.554 58.082 108.427 58.2773C108.302 58.4707 108.112 58.625 107.856 58.7402L108.779 60.4834V60.5244H107.835L107.035 58.9629ZM106.335 58.251H107.044C107.265 58.251 107.436 58.1953 107.557 58.084C107.678 57.9707 107.739 57.8154 107.739 57.6182C107.739 57.417 107.681 57.2588 107.566 57.1436C107.452 57.0283 107.278 56.9707 107.041 56.9707H106.335V58.251ZM111.5 59.4053C111.5 59.2393 111.442 59.1123 111.324 59.0244C111.207 58.9346 110.996 58.8408 110.692 58.7432C110.387 58.6436 110.146 58.5459 109.968 58.4502C109.484 58.1885 109.241 57.8359 109.241 57.3926C109.241 57.1621 109.306 56.957 109.435 56.7773C109.566 56.5957 109.752 56.4541 109.994 56.3525C110.239 56.251 110.512 56.2002 110.815 56.2002C111.119 56.2002 111.391 56.2559 111.629 56.3672C111.867 56.4766 112.052 56.6318 112.183 56.833C112.316 57.0342 112.382 57.2627 112.382 57.5186H111.503C111.503 57.3232 111.442 57.1719 111.319 57.0645C111.196 56.9551 111.023 56.9004 110.8 56.9004C110.585 56.9004 110.418 56.9463 110.299 57.0381C110.18 57.1279 110.12 57.2471 110.12 57.3955C110.12 57.5342 110.19 57.6504 110.328 57.7441C110.469 57.8379 110.675 57.9258 110.947 58.0078C111.447 58.1582 111.811 58.3447 112.039 58.5674C112.268 58.79 112.382 59.0674 112.382 59.3994C112.382 59.7686 112.242 60.0586 111.963 60.2695C111.684 60.4785 111.308 60.583 110.835 60.583C110.507 60.583 110.208 60.5234 109.939 60.4043C109.669 60.2832 109.463 60.1182 109.321 59.9092C109.18 59.7002 109.11 59.458 109.11 59.1826H109.991C109.991 59.6533 110.273 59.8887 110.835 59.8887C111.044 59.8887 111.207 59.8467 111.324 59.7627C111.442 59.6768 111.5 59.5576 111.5 59.4053Z" />
</g>

</symbol>

<symbol id="client5">
<g>
<rect x="0.5" y="0.5" width="169" height="89" rx="3.5" fill-opacity="0"/>
<path d="M60.4876 61.2777C60.7175 61.5633 60.84 61.9211 60.8336 62.2883C60.8453 62.5278 60.8032 62.7669 60.7104 62.9879C60.6176 63.2089 60.4765 63.4061 60.2975 63.5649C59.851 63.9036 59.2977 64.0691 58.7393 64.0311H56V57.6262H58.6832C59.2129 57.5908 59.7383 57.7412 60.1698 58.0517C60.3431 58.1973 60.4803 58.3814 60.5706 58.5893C60.6609 58.7973 60.7019 59.0235 60.6902 59.2501C60.706 59.6034 60.5954 59.9508 60.3786 60.2295C60.1704 60.4839 59.8826 60.6604 59.5621 60.7301C59.9255 60.7967 60.2535 60.9907 60.4876 61.2777ZM57.2746 60.3108H58.4215C58.6821 60.3302 58.941 60.2546 59.1507 60.098C59.2368 60.0197 59.3038 59.9225 59.3465 59.814C59.3892 59.7055 59.4064 59.5885 59.3969 59.4722C59.405 59.3564 59.3874 59.2402 59.3453 59.1319C59.3033 59.0237 59.2379 58.9262 59.1538 58.8465C58.9378 58.6854 58.6709 58.6087 58.4028 58.6306H57.2746V60.3108ZM59.2629 62.767C59.3549 62.6868 59.4273 62.5864 59.4743 62.4735C59.5213 62.3606 59.5418 62.2383 59.534 62.1162C59.541 61.9927 59.5197 61.8692 59.4716 61.7552C59.4235 61.6413 59.35 61.54 59.2567 61.4591C59.0323 61.2921 58.7563 61.2101 58.4776 61.2276H57.2746V62.9892H58.4931C58.7674 63.0051 59.0389 62.9267 59.2629 62.767Z" />
<path d="M65.9724 64.0312L64.4797 61.528H63.9187V64.0312H62.6348V57.6262H65.0656C65.6783 57.5833 66.284 57.7781 66.7578 58.1706C67.0976 58.5183 67.3025 58.9763 67.3357 59.4622C67.3688 59.9482 67.228 60.43 66.9385 60.8209C66.6386 61.1658 66.229 61.3958 65.7792 61.4717L67.3686 64.0312H65.9724ZM63.9187 60.655H64.969C65.6982 60.655 66.0628 60.3317 66.0628 59.6851C66.0703 59.553 66.0503 59.4208 66.0041 59.297C65.958 59.1731 65.8867 59.0602 65.7948 58.9654C65.5644 58.773 65.2676 58.6796 64.969 58.7057H63.9063L63.9187 60.655Z" />
<path d="M72.9908 62.7421H70.4322L69.9803 64.0312H68.634L70.9838 57.6982H72.4392L74.7796 64.0312H73.4333L72.9908 62.7421ZM72.648 61.7721L71.7131 59.0687L70.7781 61.7721H72.648Z" />
<path d="M81.7759 64.0312H80.5013L77.6436 59.6757V64.0312H76.3721V57.6262H77.6436L80.5013 62.0068V57.6262H81.7759V64.0312Z" />
<path d="M89.0497 62.4981C88.7862 62.9817 88.3846 63.375 87.8966 63.6276C87.3418 63.909 86.7261 64.0477 86.1047 64.0313H83.8359V57.6263H86.1047C86.725 57.61 87.3399 57.7453 87.8966 58.0206C88.3845 58.2674 88.7865 58.6569 89.0497 59.1376C89.3121 59.6585 89.4488 60.2341 89.4488 60.8178C89.4488 61.4016 89.3121 61.9772 89.0497 62.4981ZM87.5912 62.3448C87.955 61.9193 88.155 61.377 88.155 60.8163C88.155 60.2555 87.955 59.7133 87.5912 59.2878C87.1515 58.9024 86.5781 58.7067 85.9956 58.7433H85.1106V62.8892H85.9956C86.5781 62.9258 87.1515 62.7302 87.5912 62.3448Z" />
<path d="M73.7886 22C73.7886 22 90.2401 28.236 89.8911 37.2599V52.5229C89.8911 52.5229 73.452 46.2838 73.7948 37.2599L73.7886 22Z" />
<path d="M104.548 48.9497C107.655 46.8029 111.249 45.4732 115 45.0824V40.3044C110.677 41.9772 107.01 45.0102 104.548 48.9497Z" />
<path d="M102.681 50.3889C105.224 45.2477 109.633 41.2804 115 39.303V25.5356C115 25.5356 91.5708 34.4187 92.0663 47.2693V68.9999C92.0663 68.9999 93.1103 68.6025 94.7527 67.8578C94.7527 67.1632 94.7527 66.4623 94.8275 65.7583C95.3124 59.7925 98.1372 54.2641 102.681 50.3889Z" />
<path d="M100.453 58.4616C100.576 56.9545 100.85 55.4638 101.272 54.0122C98.4429 57.3588 96.7296 61.5116 96.3731 65.8866C96.3388 66.2996 96.3201 66.7126 96.3108 67.1382C97.6415 66.4967 99.1904 65.6957 100.817 64.7539C100.402 62.684 100.279 60.5658 100.453 58.4616Z" />
<path d="M101.384 58.5398C101.228 60.4436 101.326 62.3597 101.674 64.2377C108.075 60.3922 115.268 54.4503 114.991 47.2693V46.6436C110.417 47.1573 106.138 49.1646 102.812 52.357C102.033 54.3354 101.552 56.4192 101.384 58.5398Z" />
</g>

</symbol>

<symbol id="client6">
<g>
<rect x="0.5" y="0.5" width="169" height="89" rx="3.5" fill-opacity="0"/>
<path d="M85.7404 43.3533C85.3224 42.7432 85.1225 42.022 85.1699 41.2962V38.3135C85.1699 37.3992 85.359 36.7044 85.7372 36.2291C86.1154 35.7537 86.7649 35.517 87.6858 35.5191C88.5512 35.5191 89.1654 35.7213 89.5287 36.1259C89.9249 36.6421 90.1176 37.2733 90.0735 37.91V38.6109H88.5255V37.9009C88.531 37.6685 88.516 37.4361 88.4807 37.2061C88.4584 37.0488 88.3804 36.9033 88.2595 36.7934C88.1006 36.675 87.9003 36.6175 87.6987 36.6326C87.4866 36.6176 87.2762 36.6782 87.1089 36.8025C86.9741 36.9243 86.8842 37.0838 86.8525 37.2576C86.8081 37.5011 86.7878 37.7479 86.7916 37.995V41.6147C86.7672 41.964 86.8355 42.3134 86.9904 42.6312C87.0673 42.7387 87.1743 42.824 87.2993 42.8775C87.4243 42.9311 87.5625 42.9508 87.6987 42.9346C87.897 42.9501 88.0937 42.8912 88.2467 42.7708C88.3728 42.6523 88.454 42.4976 88.4775 42.3308C88.5136 42.0907 88.5297 41.8482 88.5255 41.6056V40.8714H90.0735V41.5419C90.117 42.2056 89.9289 42.8644 89.5383 43.4171C89.1825 43.86 88.5768 44.0815 87.6858 44.0815C86.7949 44.0815 86.1218 43.8449 85.7404 43.3533Z" />
<path d="M92.1856 43.3837C91.7946 42.9194 91.5991 42.2428 91.5991 41.3477V38.2104C91.5991 37.3244 91.7946 36.6538 92.1856 36.1987C92.5766 35.7436 93.2304 35.517 94.147 35.5191C95.0572 35.5191 95.7078 35.7456 96.0988 36.1987C96.4898 36.6538 96.6885 37.3244 96.6885 38.2104V41.3477C96.6885 42.2337 96.4898 42.9134 96.0924 43.3806C95.695 43.8479 95.0476 44.0815 94.147 44.0815C93.2464 44.0815 92.5798 43.8449 92.1856 43.3837ZM94.8681 42.6312C95.0081 42.3404 95.0719 42.0219 95.054 41.7027V37.8615C95.072 37.5485 95.0093 37.2361 94.8713 36.9512C94.7928 36.8414 94.6832 36.7547 94.5551 36.7011C94.4271 36.6474 94.2856 36.629 94.147 36.6478C94.0079 36.6294 93.8662 36.6481 93.7377 36.7017C93.6093 36.7553 93.4991 36.8417 93.4195 36.9512C93.2786 37.2353 93.2147 37.5481 93.2336 37.8615V41.7209C93.2141 42.0402 93.278 42.3591 93.4195 42.6494C93.5097 42.7473 93.6211 42.8257 93.746 42.8795C93.8709 42.9332 94.0066 42.961 94.1438 42.961C94.281 42.961 94.4167 42.9332 94.5416 42.8795C94.6665 42.8257 94.7779 42.7473 94.8681 42.6494V42.6312Z" />
<path d="M98.5505 35.6106H100.217L101.47 41.3992L102.752 35.6106H104.374L104.537 43.9658H103.339L103.211 38.159L101.973 43.9658H101.012L99.7299 38.1378L99.6114 43.9658H98.3999L98.5505 35.6106Z" />
<path d="M106.406 35.6106H109.002C110.498 35.6106 111.245 36.4014 111.245 37.9831C111.245 39.498 110.458 40.2544 108.883 40.2524H107.999V43.9658H106.396L106.406 35.6106ZM108.624 39.1814C108.782 39.2005 108.943 39.1867 109.095 39.1411C109.247 39.0956 109.387 39.0193 109.505 38.9175C109.689 38.6353 109.77 38.3039 109.736 37.974C109.744 37.7191 109.719 37.4642 109.659 37.2155C109.636 37.1324 109.596 37.0545 109.541 36.9863C109.486 36.918 109.417 36.8608 109.339 36.8181C109.116 36.7171 108.87 36.6711 108.624 36.6846H108.002V39.1814H108.624Z" />
<path d="M113.556 35.6106H115.277L117.043 43.9658H115.549L115.2 42.0393H113.665L113.306 43.9658H111.79L113.556 35.6106ZM115.027 41.0715L114.428 37.5644L113.828 41.0715H115.027Z" />
<path d="M118.469 35.6106H119.591L121.738 40.3768V35.6106H123.068V43.9658H122.001L119.841 38.9903V43.9658H118.466L118.469 35.6106Z" />
<path d="M126.184 40.7801L124.398 35.6223H125.902L126.991 38.9354L128.014 35.6223H129.485L127.722 40.7801V43.9658H126.184V40.7801Z" />
<path d="M88.2146 47.6189V48.0558H86.907V51.4509H86.3589V48.0558H85.0449V47.6189H88.2146Z" />
<path d="M92.3141 51.4512H91.891C91.8481 51.4537 91.8057 51.4407 91.7724 51.4148C91.7404 51.3925 91.7159 51.362 91.7019 51.3268L91.3238 50.4166H89.5097L89.1316 51.3268C89.1208 51.3649 89.1011 51.4001 89.0739 51.43C89.0403 51.4554 88.9982 51.4683 88.9553 51.4664H88.5322L90.1347 47.6345H90.6924L92.3141 51.4512ZM89.6604 50.0283H91.1731L90.5321 48.4688C90.4848 48.3509 90.4452 48.2303 90.4135 48.1078C90.3911 48.1806 90.3719 48.2504 90.3526 48.3111L90.295 48.4719L89.6604 50.0283Z" />
<path d="M95.0766 51.0748C95.177 51.0798 95.2775 51.0798 95.3779 51.0748C95.4645 51.0664 95.5503 51.0512 95.6343 51.0293C95.7128 51.0111 95.7899 50.9878 95.865 50.9595C95.9356 50.9322 96.0061 50.8988 96.0798 50.8655V50.0037H95.4388C95.4229 50.0046 95.4071 50.0023 95.3922 49.9971C95.3773 49.9919 95.3637 49.9838 95.3523 49.9734C95.3417 49.9648 95.3334 49.954 95.3279 49.9419C95.3223 49.9299 95.3197 49.9167 95.3202 49.9036V49.6093H96.5637V51.0779C96.4622 51.1466 96.355 51.2075 96.2432 51.2599C96.129 51.3133 96.0099 51.357 95.8875 51.3904C95.7564 51.4269 95.6224 51.4533 95.4869 51.4693C95.3315 51.4856 95.1753 51.4937 95.0189 51.4936C94.7425 51.4958 94.4683 51.4473 94.2113 51.351C93.9714 51.2596 93.7534 51.1234 93.5703 50.9504C93.3919 50.7757 93.2514 50.5695 93.1569 50.3436C93.0559 50.0896 93.0059 49.8199 93.0095 49.5486C93.0061 49.2755 93.055 49.0041 93.1537 48.7475C93.2459 48.5204 93.3866 48.3138 93.5671 48.1406C93.75 47.9682 93.9681 47.833 94.2081 47.7431C94.4825 47.6454 94.7738 47.597 95.067 47.6005C95.2162 47.6003 95.3652 47.6115 95.5125 47.6339C95.6428 47.654 95.7706 47.6865 95.8939 47.731C96.006 47.7709 96.1134 47.8217 96.2144 47.8827C96.3126 47.9426 96.4058 48.0095 96.4932 48.083L96.3394 48.3197C96.3273 48.3413 96.3094 48.3594 96.2874 48.3722C96.2654 48.3851 96.2402 48.392 96.2144 48.3925C96.1789 48.3914 96.1445 48.3809 96.115 48.3621C96.067 48.3379 96.0157 48.3075 95.958 48.2711C95.8898 48.2307 95.818 48.1961 95.7433 48.1679C95.6477 48.1317 95.5491 48.1032 95.4484 48.083C95.3142 48.0596 95.1779 48.0484 95.0414 48.0496C94.8299 48.0474 94.62 48.0834 94.4228 48.1558C94.2445 48.2235 94.0838 48.3271 93.9517 48.4592C93.8189 48.597 93.7174 48.7592 93.6536 48.9356C93.5105 49.3507 93.5105 49.7981 93.6536 50.2131C93.7238 50.3933 93.833 50.5576 93.9741 50.6955C94.1056 50.827 94.2651 50.9304 94.4421 50.999C94.6458 51.0652 94.8619 51.091 95.0766 51.0748Z" />
<path d="M100.185 51.014H101.935V51.4509H99.6499V47.6189H100.198L100.185 51.014Z" />
<path d="M103.756 51.4509H103.208V47.6189H103.756V51.4509Z" />
<path d="M105.794 47.6371C105.826 47.6547 105.855 47.6785 105.877 47.7069L108.22 50.5955C108.217 50.5501 108.217 50.5045 108.22 50.459C108.22 50.4165 108.22 50.374 108.22 50.3346V47.6038H108.698V51.4512H108.422C108.381 51.4543 108.34 51.447 108.303 51.43C108.27 51.4109 108.241 51.3862 108.217 51.3571L105.877 48.4716C105.877 48.5171 105.877 48.5595 105.877 48.602C105.877 48.6445 105.877 48.684 105.877 48.7204V51.4512H105.419V47.6189H105.704C105.735 47.619 105.766 47.6252 105.794 47.6371Z" />
<path d="M112.732 47.6189V48.0406H110.79V49.3059H112.364V49.7124H110.79V51.0202H112.732V51.4419H110.226V47.6189H112.732Z" />
<path d="M55.3035 23.9539L79.6385 30.4953V53.4173L55.3035 46.879V23.9539ZM53.7427 22V47.9925L81.196 55.3743V29.3848L53.7427 22Z" />
<path d="M68.4565 67.4402L41 60.0522V34.0625L68.4565 41.4474V67.4402Z" />
<path d="M54.1978 23.6596L78.2155 30.1189L68.0014 39.7912L43.9806 33.3288L54.1978 23.6596ZM53.7427 22L41 34.0631L68.4565 41.4478L81.196 29.3847L53.7427 22Z" />
<path d="M70.0015 65.978L81.1962 55.3774L70.0015 52.3647V65.978Z" />
</g>

</symbol>
</svg>
